<?xml version="1.0" encoding="utf-8"?>
<!-- Generator: Adobe Illustrator 16.0.0, SVG Export Plug-In . SVG Version: 6.00 Build 0)  -->
<!DOCTYPE svg PUBLIC "-//W3C//DTD SVG 1.1//EN" "http://www.w3.org/Graphics/SVG/1.1/DTD/svg11.dtd">
<svg version="1.1" id="Layer_1" xmlns="http://www.w3.org/2000/svg" xmlns:xlink="http://www.w3.org/1999/xlink" x="0px" y="0px"
	 width="36px" height="36px" viewBox="0 0 36 36" enable-background="new 0 0 36 36" xml:space="preserve">
<circle fill="#FFFFFF" cx="18" cy="17.917" r="14.748"/>
<g opacity="0.7">
	<path fill="#868686" d="M16.943,20.577c0-0.339,0.021-0.633,0.061-0.883c0.041-0.25,0.107-0.479,0.2-0.687
		c0.093-0.207,0.214-0.403,0.361-0.589c0.147-0.187,0.328-0.384,0.543-0.594c0.162-0.157,0.313-0.306,0.454-0.446
		s0.264-0.285,0.371-0.433s0.192-0.305,0.254-0.472s0.093-0.353,0.093-0.558c0-0.447-0.11-0.789-0.332-1.025
		c-0.222-0.235-0.547-0.354-0.976-0.354c-0.172,0-0.338,0.023-0.5,0.071s-0.308,0.124-0.437,0.229
		c-0.128,0.105-0.231,0.238-0.311,0.4c-0.078,0.162-0.118,0.357-0.118,0.586h-1.736c0.005-0.447,0.087-0.842,0.247-1.183
		c0.159-0.34,0.378-0.626,0.657-0.857c0.278-0.23,0.604-0.404,0.979-0.521s0.78-0.176,1.219-0.176c0.481,0,0.91,0.062,1.286,0.187
		s0.695,0.305,0.958,0.543c0.262,0.238,0.461,0.528,0.597,0.872c0.136,0.343,0.203,0.73,0.203,1.164c0,0.314-0.05,0.607-0.149,0.879
		c-0.101,0.272-0.233,0.527-0.4,0.766s-0.357,0.467-0.572,0.686c-0.214,0.219-0.436,0.436-0.664,0.65
		c-0.262,0.238-0.438,0.499-0.525,0.782c-0.088,0.284-0.135,0.604-0.14,0.962H16.943z M16.822,22.799
		c0-0.133,0.021-0.257,0.064-0.371s0.105-0.215,0.189-0.3c0.083-0.086,0.186-0.152,0.307-0.201c0.122-0.047,0.261-0.07,0.418-0.07
		s0.297,0.023,0.418,0.07c0.122,0.049,0.225,0.115,0.308,0.201c0.083,0.085,0.147,0.186,0.193,0.3
		c0.045,0.114,0.067,0.238,0.067,0.371c0,0.263-0.086,0.481-0.257,0.657c-0.172,0.177-0.415,0.265-0.729,0.265
		s-0.556-0.088-0.725-0.265C16.906,23.28,16.822,23.062,16.822,22.799z"/>
</g>
</svg>
