<?xml version="1.0" encoding="utf-8"?>
<!-- Generator: Adobe Illustrator 16.0.0, SVG Export Plug-In . SVG Version: 6.00 Build 0)  -->
<!DOCTYPE svg PUBLIC "-//W3C//DTD SVG 1.1//EN" "http://www.w3.org/Graphics/SVG/1.1/DTD/svg11.dtd">
<svg version="1.1" id="Layer_1" xmlns="http://www.w3.org/2000/svg" xmlns:xlink="http://www.w3.org/1999/xlink" x="0px" y="0px"
	 width="18px" height="18px" viewBox="11 11 18 18" enable-background="new 11 11 18 18" xml:space="preserve">
<g id="Layer_1_1_">
	<g>
		<g>
			<defs>
				<rect id="SVGID_1_" x="8" y="8" width="24" height="24"/>
			</defs>
			<clipPath id="SVGID_2_">
				<use xlink:href="#SVGID_1_"  overflow="visible"/>
			</clipPath>
			<path clip-path="url(#SVGID_2_)" fill="#147BB8" d="M27,11H13c-1.105,0-2,0.896-2,2v14c0,1.105,0.895,2,2,2h14
				c1.105,0,2-0.895,2-2V13C29,11.896,28.105,11,27,11 M18,25l-5-5l1.414-1.414L18,22.172l7.586-7.586L27,16L18,25z"/>
		</g>
	</g>
</g>
<g>
	<g>
		<g id="off" display="none">
			<defs>
				<rect id="SVGID_3_" x="8" y="8" width="24" height="24"/>
			</defs>
			<clipPath id="SVGID_4_" display="inline">
				<use xlink:href="#SVGID_3_"  overflow="visible"/>
			</clipPath>
			<g display="inline" clip-path="url(#SVGID_4_)">
				<g opacity="0.54">
					<g>
						<defs>
							<rect id="SVGID_5_" x="11" y="11" width="18" height="18"/>
						</defs>
						<clipPath id="SVGID_6_">
							<use xlink:href="#SVGID_5_"  overflow="visible"/>
						</clipPath>
						<path clip-path="url(#SVGID_6_)" fill="#147BB8" d="M27,13v14.068L13,27.07V13H27 M26.917,11h-14
							C11.812,11,11,11.965,11,13.068v14C11,28.174,11.812,29,12.917,29h14C28.021,29,29,28.174,29,27.068v-14
							C29,11.965,28.021,11,26.917,11"/>
					</g>
				</g>
			</g>
		</g>
	</g>
</g>
</svg>
