<?xml version="1.0" encoding="utf-8"?>
<!-- Generator: Adobe Illustrator 16.0.0, SVG Export Plug-In . SVG Version: 6.00 Build 0)  -->
<!DOCTYPE svg PUBLIC "-//W3C//DTD SVG 1.1//EN" "http://www.w3.org/Graphics/SVG/1.1/DTD/svg11.dtd">
<svg version="1.1" id="Layer_1" xmlns="http://www.w3.org/2000/svg" xmlns:xlink="http://www.w3.org/1999/xlink" x="0px" y="0px"
	 width="34px" height="34px" viewBox="0 0 34 34" enable-background="new 0 0 34 34" xml:space="preserve">
<path fill="#ffffff" d="M26.204,23.182c-1.15,0-2.188,0.446-2.975,1.165l-10.784-6.289c0.083-0.34,0.136-0.696,0.136-1.06
	c0-0.363-0.053-0.719-0.136-1.059L23.116,9.71c0.81,0.757,1.892,1.226,3.088,1.226c2.505,0,4.541-2.037,4.541-4.541
	c0-2.505-2.035-4.541-4.541-4.541c-2.506,0-4.541,2.036-4.541,4.541c0,0.362,0.053,0.719,0.136,1.059l-10.671,6.228
	c-0.81-0.757-1.892-1.226-3.088-1.226c-2.505,0-4.541,2.036-4.541,4.541c0,2.506,2.036,4.541,4.541,4.541
	c1.196,0,2.278-0.469,3.088-1.227l10.785,6.289c-0.076,0.318-0.121,0.652-0.121,0.992c0,2.437,1.975,4.413,4.412,4.413
	c2.437,0,4.412-1.977,4.412-4.413S28.641,23.182,26.204,23.182z"/>
</svg>
