<?xml version="1.0" encoding="utf-8"?>
<!-- Generator: Adobe Illustrator 16.0.0, SVG Export Plug-In . SVG Version: 6.00 Build 0)  -->
<!DOCTYPE svg PUBLIC "-//W3C//DTD SVG 1.1//EN" "http://www.w3.org/Graphics/SVG/1.1/DTD/svg11.dtd">
<svg version="1.1" xmlns="http://www.w3.org/2000/svg" xmlns:xlink="http://www.w3.org/1999/xlink" x="0px" y="0px"
	 width="879.068px" height="556.864px" viewBox="0 0 879.068 556.864" enable-background="new 0 0 879.068 556.864"
	 xml:space="preserve">
<g id="Layer_1">
	<rect x="28.447" y="63.682" fill="none" width="389.656" height="245.016"/>
	<text transform="matrix(1 0 0 1 28.4473 74.1821)"><tspan x="0" y="0" fill="#FFFFFF" font-family="'Roboto-Bold'" font-size="14">Simulaattorin tavoitteena on herättää ajatuksia ja keskustelua </tspan><tspan x="0" y="16.8" fill="#FFFFFF" font-family="'Roboto-Bold'" font-size="14">hyvinvointipalveluiden ja niiden rahoituksen tulevaisuudesta.</tspan><tspan x="0" y="50.4" fill="#FFFFFF" font-family="'Roboto-Bold'" font-size="14">Suomen huoltosuhde, eli </tspan><tspan x="159.018" y="50.4" fill="#FFFFFF" font-family="'Roboto-Regular'" font-size="14"> alle 20-vuotiaiden ja yli 64 vuotiaid</tspan><tspan x="375.184" y="50.4" fill="#FFFFFF" font-family="'Roboto-Regular'" font-size="14">-</tspan><tspan x="0" y="67.2" fill="#FFFFFF" font-family="'Roboto-Regular'" font-size="14">en määrän suhde 15-64 -vuotiaiden määrään, on maailman </tspan><tspan x="0" y="84" fill="#FFFFFF" font-family="'Roboto-Regular'" font-size="14">heikoimpia. Toisin sanoen yhteiskunnan yhä pienenevä työvoi</tspan><tspan x="381.568" y="84" fill="#FFFFFF" font-family="'Roboto-Regular'" font-size="14">-</tspan><tspan x="0" y="100.8" fill="#FFFFFF" font-family="'Roboto-Regular'" font-size="14">ma joutuu elättämään yhä enemmän lapsia ja vanhuksia.</tspan><tspan x="0" y="134.4" fill="#FFFFFF" font-family="'Roboto-Regular'" font-size="14">Julkiset hyvinvointipalvelut kuten terveydenhuolto, eläkkeet, </tspan><tspan x="0" y="151.2" fill="#FFFFFF" font-family="'Roboto-Regular'" font-size="14">koulutus ja muut palvelut ja tulonsiirrot joutuvat koetukselle </tspan><tspan x="0" y="168" fill="#FFFFFF" font-family="'Roboto-Regular'" font-size="14">kun julkisyhteisöjen verokertymä kutistuu työikäisten määrän </tspan><tspan x="0" y="184.8" fill="#FFFFFF" font-family="'Roboto-Regular'" font-size="14">vähetessä. Palveluiden rahoitus on mietittävä uudelleen, jotta </tspan><tspan x="0" y="201.6" fill="#FFFFFF" font-family="'Roboto-Regular'" font-size="14">väestölle voidaan jatkossakin tarjota tärkeitä hyvinvointipalve</tspan><tspan x="379.654" y="201.6" fill="#FFFFFF" font-family="'Roboto-Regular'" font-size="14">-</tspan><tspan x="0" y="218.4" fill="#FFFFFF" font-family="'Roboto-Regular'" font-size="14">luita ilman, että julkisyhteisöt joutuvat maksukyvyttömäksi.</tspan></text>
	<text transform="matrix(0.9949 0 0 1 307.0166 340.5542)" fill="#848484" font-family="'Roboto-Medium'" font-size="11">Suomi</text>
	<text transform="matrix(0.9949 0 0 1 307.0166 390.3276)" fill="#848484" font-family="'Roboto-Medium'" font-size="11">EU27</text>
	<text transform="matrix(0.9949 0 0 1 307.0166 358.4595)" fill="#848484" font-family="'Roboto-Medium'" font-size="11">Ruotsi</text>
	<text transform="matrix(0.9949 0 0 1 307.0166 370.4409)" fill="#848484" font-family="'Roboto-Medium'" font-size="11">Saksa</text>
	<polyline fill="none" stroke="#7C7C7C" stroke-width="1.2935" stroke-miterlimit="10" points="297.451,454.813 97.679,454.813 
		97.679,340.554 	"/>
	<path fill="#FFFFFF" stroke="#7C7C7C" stroke-width="0.7507" stroke-miterlimit="10" d="M247.8,454.813"/>
	<text transform="matrix(0.9949 0 0 1 73.1982 420.8647)" fill="#7C7C7C" font-family="'Roboto-Medium'" font-size="11">70%</text>
	<text transform="matrix(0.9949 0 0 1 73.1982 380.9409)" fill="#7C7C7C" font-family="'Roboto-Medium'" font-size="11">80%</text>
	<text transform="matrix(0.9949 0 0 1 73.1982 340.3042)" fill="#7C7C7C" font-family="'Roboto-Medium'" font-size="11">90%</text>
	
		<line opacity="0.7" fill="none" stroke="#7C7C7C" stroke-width="0.8405" stroke-miterlimit="10" x1="298.344" y1="418.777" x2="97.721" y2="418.777"/>
	
		<line opacity="0.7" fill="none" stroke="#7C7C7C" stroke-width="0.8405" stroke-miterlimit="10" x1="298.344" y1="379.55" x2="97.721" y2="379.55"/>
	
		<line opacity="0.7" fill="none" stroke="#7C7C7C" stroke-width="0.8405" stroke-miterlimit="10" x1="298.344" y1="340.554" x2="97.721" y2="340.554"/>
	<polyline fill="none" stroke="#626CB3" stroke-width="1.678" stroke-miterlimit="10" points="98.342,431.622 148.343,405.701 
		198.343,379.78 248.343,356.842 298.591,341.703 	"/>
	<polyline fill="none" stroke="#29368F" stroke-width="1.678" stroke-miterlimit="10" points="98.342,445.729 148.343,435.522 
		198.343,421.644 248.343,406.274 298.591,388.554 	"/>
	<polyline fill="none" stroke="#E1141A" stroke-width="1.678" stroke-miterlimit="10" points="98.342,440.511 148.343,439.422 
		198.343,427.706 248.343,406.274 298.591,369.115 	"/>
	<polyline fill="none" stroke="#E3E20F" stroke-width="1.678" stroke-miterlimit="10" points="98.342,414.189 148.343,404.812 
		198.343,386.089 248.343,369.917 298.591,359.938 	"/>
	<rect x="96.608" y="488.979" fill="none" width="250.135" height="58.832"/>
	<text transform="matrix(0.9949 0 0 1 96.6084 497.979)"><tspan x="0" y="0" fill="#848484" font-family="'Roboto-Medium'" font-size="12">Huoltosuhteen ennakoitu kehitys</tspan><tspan x="0" y="14.4" fill="#848484" font-family="'Roboto-MediumItalic'" font-size="12">(Alle 20 vuotiaiden ja yli 64 vuotiaiden määrä </tspan><tspan x="0" y="28.8" fill="#848484" font-family="'Roboto-MediumItalic'" font-size="12">prosenttina 20-64 vuotiaiden lukumäärästä)</tspan></text>
	<rect x="461.049" y="63.682" fill="none" width="389.656" height="335.869"/>
	<text transform="matrix(1 0 0 1 461.0488 74.1821)"><tspan x="0" y="0" fill="#FFFFFF" font-family="'Roboto-Regular'" font-size="14">Hyvinvointibudjetti.fi -simulaattorissa voit kokeilla vaihtoehto</tspan><tspan x="380.133" y="0" fill="#FFFFFF" font-family="'Roboto-Regular'" font-size="14">-</tspan><tspan x="0" y="16.8" fill="#FFFFFF" font-family="'Roboto-Regular'" font-size="14">sia tapoja rahoittaa hyvinvointipalveluita. Simulaattorissa </tspan><tspan x="0" y="33.6" fill="#FFFFFF" font-family="'Roboto-Regular'" font-size="14">luodaan “kehysbudjetti” vuosille 2016-2025 säätämällä palve</tspan><tspan x="376.12" y="33.6" fill="#FFFFFF" font-family="'Roboto-Regular'" font-size="14">-</tspan><tspan x="0" y="50.4" fill="#FFFFFF" font-family="'Roboto-Regular'" font-size="14">luiden rahoituslähteiden ja verotulojen suuruutta. Simulaattori </tspan><tspan x="0" y="67.2" fill="#FFFFFF" font-family="'Roboto-Regular'" font-size="14">havainnollistaa julkisyhteisöjen ja kotitalouksien tuloja ja </tspan><tspan x="0" y="84" fill="#FFFFFF" font-family="'Roboto-Regular'" font-size="14">menoja eri rahoitusskenarioissa. Laskelmissa on huomiotu </tspan><tspan x="0" y="100.8" fill="#FFFFFF" font-family="'Roboto-Regular'" font-size="14">ennakoitu väestörakenteen muutos.</tspan><tspan x="0" y="134.4" fill="#FFFFFF" font-family="'Roboto-Regular'" font-size="14">Voit tallentaa budjettisi ja jakaa sitä. Toivomme, että talous</tspan><tspan x="366.529" y="134.4" fill="#FFFFFF" font-family="'Roboto-Regular'" font-size="14">-</tspan><tspan x="0" y="151.2" fill="#FFFFFF" font-family="'Roboto-Regular'" font-size="14">simulaattori auttaa herättämään tasapuolista keskustelua </tspan><tspan x="0" y="168" fill="#FFFFFF" font-family="'Roboto-Regular'" font-size="14">hyvinvointipalveluiden turvaamisesta.</tspan><tspan x="0" y="218.4" fill="#FFFFFF" font-family="'Roboto-Regular'" font-size="14">Simulaattori hyödyntää mm. Tilastokeskuksen, Eläketurvake</tspan><tspan x="372.75" y="218.4" fill="#FFFFFF" font-family="'Roboto-Regular'" font-size="14">-</tspan><tspan x="0" y="235.2" fill="#FFFFFF" font-family="'Roboto-Regular'" font-size="14">skuksen ja Terveyden- ja Hyvinvointilaitoksen datoja. Jos </tspan><tspan x="0" y="252" fill="#FFFFFF" font-family="'Roboto-Regular'" font-size="14">haluat tietää tarkemmin simulaattorin laskentatavoista ja </tspan><tspan x="0" y="268.8" fill="#FFFFFF" font-family="'Roboto-Regular'" font-size="14">olettamuksista, lue lisää simulaattorin wiki-sivuilla.</tspan></text>
	<rect x="28.447" y="25.167" fill="none" width="587.077" height="89.031"/>
	<text transform="matrix(1 0 0 1 28.4473 37.1665)" fill="#1F64B2" font-family="'Roboto-Bold'" font-size="16">Tervetuloa Hyvinvointibudjetti.fi -taloussimulaattorille!</text>
	<text transform="matrix(0.9949 0 0 1 85.2295 472.2388)" fill="#7C7C7C" font-family="'Roboto-Medium'" font-size="11">2010</text>
	<text transform="matrix(0.9949 0 0 1 132.9473 472.2388)" fill="#7C7C7C" font-family="'Roboto-Medium'" font-size="11">2015</text>
	<text transform="matrix(0.9949 0 0 1 181.4297 472.2388)" fill="#7C7C7C" font-family="'Roboto-Medium'" font-size="11">2020</text>
	<text transform="matrix(0.9949 0 0 1 232.6309 472.2388)" fill="#7C7C7C" font-family="'Roboto-Medium'" font-size="11">2025</text>
	<text transform="matrix(0.9949 0 0 1 285.1074 472.2388)" fill="#7C7C7C" font-family="'Roboto-Medium'" font-size="11">2030</text>
</g>
<g id="Layer_2" display="none">
</g>
</svg>
